<svg width="1009" height="180" viewBox="0 0 1009 180" fill="none" xmlns="http://www.w3.org/2000/svg">
<path d="M478.227 9.32243C497.72 7.70878 513.928 13.3329 524.42 30.7139C541.385 58.3146 538.872 110.966 508.227 128.328C489.035 139.205 461.548 136.671 449.908 115.905L449.795 158.574L449.893 179.157L415.048 179.09L415.092 10.7147L449 10.642L449.015 29.7229C457.28 17.2091 462.83 11.7238 478.227 9.32243ZM477.418 107.524C494.66 104.743 499.452 91.7263 500.262 75.7601C501.177 57.677 496.085 36.2675 473.84 37.1092C448.828 40.4715 447.905 63.3161 450.35 83.8869C452.293 100.219 461.3 107.774 477.418 107.524Z" fill="currentColor"></path>
<path d="M723.043 8.71247C758.015 2.66525 791.247 26.2113 797.142 61.2223C803.03 96.2326 779.353 129.365 744.32 135.109C709.505 140.818 676.632 117.304 670.775 82.5072C664.917 47.71 688.28 14.7229 723.043 8.71247ZM739.88 108.164C746.915 106.426 754.017 102.401 757.34 95.7705C769.317 71.8584 762.343 31.5571 728.585 35.479C704.555 41.9299 702.103 66.2568 707.045 87.664C710.623 103.161 724.415 110.701 739.88 108.164Z" fill="currentColor"></path>
<path d="M232.23 0.741154C251.764 -1.14406 277.916 1.77564 294.008 13.8446C309.3 25.3149 307.131 45.3913 307.066 62.5307L306.952 103.468C306.94 112.204 306.689 124.147 307.757 132.607L307.884 133.574C297.968 133.583 288.052 133.533 278.137 133.423C277.174 128.247 276.993 122.689 276.677 117.41C262.11 138.566 236.315 140.855 215.623 127.178C210.212 121.485 206.902 115.501 206.135 107.574C205.477 100.765 206.764 93.4465 209.995 87.394C224.983 59.3094 267.98 68.5885 277.627 55.7288C278.984 53.9194 279.346 51.7071 278.873 49.5173C278.383 47.2427 277.063 45.5916 275.082 44.4086C268.431 40.4356 257.08 42.098 250.075 44.1303C242.105 46.4423 237.887 50.0995 233.92 57.3012C223.458 57.0657 212.992 57.0109 202.528 57.1362C207.249 42.7131 212.428 22.8295 219.076 9.30223C221.744 3.87391 226.649 1.97746 232.23 0.741154ZM243.697 109.794C250.924 111.856 257.125 111.611 263.846 107.817C269.827 104.458 274.171 98.7946 275.863 92.1457C276.76 88.7046 277.741 83.8877 276.711 80.4361C275.443 80.2013 275.724 80.0235 274.741 80.3528C263.331 82.6821 248.603 83.9124 240.108 92.3873C233.993 98.4862 238.085 105.352 243.697 109.794Z" fill="currentColor"></path>
<path d="M943.123 9.39968C960.275 6.78379 980.923 11.969 993.013 24.945C1008.41 41.4685 1008.44 59.2449 1007.92 80.2605L925.483 80.1945C928.573 113.387 965.128 119.118 977.06 94.1141C984.733 94.2926 992.81 94.1839 1000.52 94.2004C1002.04 94.1952 1003.58 94.37 1005.1 94.5035C1007.91 97.7548 1005.87 102.134 1004.17 105.395C978.74 154.2 894.958 139.773 891.418 81.5358C889.108 43.5825 903.035 13.7477 943.123 9.39968ZM926.488 58.4602L957.313 58.5389L977.608 58.5224C973.348 39.3808 966.26 32.0785 945.778 34.0552C932.345 38.1655 929.083 45.0611 926.488 58.4602Z" fill="currentColor"></path>
<path d="M597.132 9.3427C617.217 6.37573 642.192 12.7583 653.3 30.6689C657.957 38.1887 659.217 44.2697 660.657 52.6898C650.435 52.6935 638.187 52.3942 628.13 53.0319L627.972 52.581C626.465 48.365 623.622 41.3883 619.835 39.5308C588.815 24.2984 575.757 56.2756 580.332 81.6071C583.947 101.63 593.262 110.341 612.47 108.506C623.93 107.411 624.83 98.1569 630.185 90.7473C632.772 89.541 636.132 89.9521 639.125 90.0047L661.692 90.0849C656.487 136.605 602.795 145.066 568.902 123.841C541.355 106.593 539.592 55.4017 557.9 31.2736C568.062 17.882 580.347 11.8686 597.132 9.3427Z" fill="currentColor"></path>
<path d="M0.222004 0.548355C10.0178 0.64738 43.6395 -1.56113 49.1542 4.66539C62.5312 19.7673 62.3932 51.2015 75.5542 67.4685C81.4455 74.7512 97.3425 73.7992 106.104 74.0295C102.193 88.1442 95.376 106.521 90.5168 120.523C89.4233 122.764 86.634 127.986 84.9802 129.396C52.8982 156.757 46.7362 72.9658 32.0205 60.6043C22.6252 52.7108 9.03375 52.4835 0 52.3988C1.04775 38.4649 0.295504 14.8453 0.222004 0.548355Z" fill="currentColor"></path>
<path d="M130.234 0.124485C165.01 -2.82448 156.862 47.41 174.422 67.0318C180.985 74.3663 193.713 73.818 202.085 74.2644C197.072 89.6409 191.817 107.597 185.56 122.488C182.944 128.713 178.702 132.541 172.265 134.562C171.836 134.557 171.407 134.545 170.978 134.528C143.97 133.372 146.093 81.034 130.541 64.9013C122.828 56.8999 110.195 57.5593 100.352 57.2869C104.834 43.2585 109.629 26.5864 115.406 13.0749C118.41 6.05018 123.084 2.38329 130.234 0.124485Z" fill="currentColor"></path>
<path d="M392.412 9.41399C393.942 9.2677 397.871 9.36672 399.592 9.35771L399.614 43.0259C398.065 42.9959 396.516 42.9794 394.967 42.9772C357.462 42.9697 358.883 63.596 358.943 93.2237L359.038 132.313C347.143 132.386 335.247 132.344 323.352 132.186L323.445 115.439L323.217 10.783C334.26 10.3742 347.45 10.702 358.65 10.7208C358.155 15.5249 358.392 26.8505 358.349 32.1408C367.149 15.9173 373.208 10.6578 392.412 9.37771Z" fill="currentColor"></path>
<path d="M882.275 9.42517L884.09 9.6075C885.77 12.8153 884.96 37.8106 884.907 43.0019L883.715 42.9809C858.402 42.6141 846.192 50.7288 845.945 77.4721C845.78 95.7263 845.96 114.124 846.035 132.388L811.272 132.24L811.288 117.314L811.198 10.7485C822.32 10.4462 834.702 10.6998 845.907 10.7193C845.862 17.873 845.87 25.0275 845.93 32.1813C854.495 13.8445 863.135 10.4634 882.275 9.42517Z" fill="currentColor"></path>
</svg>